<mxfile host="app.diagrams.net" modified="2022-12-28T03:21:11.218Z" agent="5.0 (X11; Linux x86_64) AppleWebKit/537.36 (KHTML, like Gecko) Chrome/103.0.0.0 Safari/537.36" etag="jx2EozG7OVyCx-PG9MBW" version="20.7.4" type="github">
  <diagram id="I4c898q_zl6ffYsK1LtM" name="第 1 页">
    <mxGraphModel dx="1367" dy="852" grid="1" gridSize="10" guides="1" tooltips="1" connect="1" arrows="1" fold="1" page="1" pageScale="1" pageWidth="827" pageHeight="1169" math="0" shadow="0">
      <root>
        <mxCell id="0" />
        <mxCell id="1" parent="0" />
        <mxCell id="-x1gugCK15XvcF_PdMx5-1" value="" style="rounded=0;whiteSpace=wrap;html=1;shadow=0;" parent="1" vertex="1">
          <mxGeometry x="79" y="90" width="670" height="410" as="geometry" />
        </mxCell>
        <mxCell id="gnBAOL3Ad0XkefQIAakq-2" value="" style="rounded=1;whiteSpace=wrap;html=1;shadow=0;" vertex="1" parent="1">
          <mxGeometry x="100" y="100" width="120" height="60" as="geometry" />
        </mxCell>
      </root>
    </mxGraphModel>
  </diagram>
</mxfile>
